<svg id="Layer_2" data-name="Layer 2" xmlns="http://www.w3.org/2000/svg" viewBox="0 0 360 360">
  <title>home</title>
  <g>
    <path d="M183.64,217.19c-.94-.68-1.91-1.31-2.87-2a.72.72,0,0,0-.93,0c-.25.19-.51.36-.76.55-1.45,1-2.93,2-4.33,3.15a86.38,86.38,0,0,0-10.68,10.13,66.35,66.35,0,0,0-7.15,9.38,44.6,44.6,0,0,0-4.75,10,30.7,30.7,0,0,0-1.44,10.43,30.23,30.23,0,0,0,.93,6.33,28.45,28.45,0,0,0,20.86,20.89,37.66,37.66,0,0,0,6.56,1,28.42,28.42,0,0,0,6.08-.32,31.33,31.33,0,0,0,5.63-1.44,27.33,27.33,0,0,0,11.5-7.5,29.77,29.77,0,0,0,4.72-7.11A28.76,28.76,0,0,0,210,258v-.86a29.2,29.2,0,0,0-.6-5.24,36.11,36.11,0,0,0-3.21-9.15,60.58,60.58,0,0,0-8.34-12.3,92.8,92.8,0,0,0-6.64-6.91A74.71,74.71,0,0,0,183.64,217.19Z"/>
    <path d="M196,183.13a62.54,62.54,0,0,0,8.31-10.94,44.74,44.74,0,0,0,3.86-8.23,31.75,31.75,0,0,0,1.73-8.91,31.15,31.15,0,0,0-.51-7.2,29.69,29.69,0,0,0-4.35-10.8,28,28,0,0,0-12.24-10.31,29.86,29.86,0,0,0-12.57-2.55c-.46,0-.91,0-1.37,0a30.12,30.12,0,0,0-4.73.55,29.81,29.81,0,0,0-8.21,2.93,27.62,27.62,0,0,0-12.4,13.11,29.54,29.54,0,0,0-2.83,11.89,31,31,0,0,0,.59,6.85,35.55,35.55,0,0,0,3.06,8.75,58.45,58.45,0,0,0,7.53,11.48,95.61,95.61,0,0,0,9.63,9.93,65.61,65.61,0,0,0,8.19,6.33,1,1,0,0,0,1.25,0,66.25,66.25,0,0,0,6.59-4.82A91.78,91.78,0,0,0,196,183.13Z"/>
    <path d="M172.31,7.5,9.4,186.15a9.7,9.7,0,0,0,0,13.05l16.07,17.73a9.7,9.7,0,0,0,14.21.18l.13-.13a9.7,9.7,0,0,1,16.61,5.26L75.21,347.4a9.7,9.7,0,0,0,9.59,8.26H276.1a9.7,9.7,0,0,0,9.59-8.26l18.82-125.16A9.7,9.7,0,0,1,321.13,217h0a9.7,9.7,0,0,0,14.32-.31l15.29-17.47a9.7,9.7,0,0,0-.15-12.95L186.63,7.48A9.7,9.7,0,0,0,172.31,7.5Zm21.5,198.57c1.67,1.37,3.38,2.7,5,4.12A94.83,94.83,0,0,1,214,226.73a61.54,61.54,0,0,1,7.1,12.78,49.91,49.91,0,0,1,3,10.76,46.54,46.54,0,0,1,.57,6.11,46,46,0,0,1-.34,6.75,43.1,43.1,0,0,1-9.35,22.17,44.75,44.75,0,0,1-9.46,8.89,43.36,43.36,0,0,1-12.78,6,46.21,46.21,0,0,1-7.15,1.48,42.9,42.9,0,0,1-7.8.26,45.77,45.77,0,0,1-12-2.31,44.67,44.67,0,0,1-24.69-20.9,44.78,44.78,0,0,1-4.56-13,43.85,43.85,0,0,1-.71-6.44,47.72,47.72,0,0,1,3.9-20.6,65.33,65.33,0,0,1,7.13-12.46,84.58,84.58,0,0,1,8.06-9.65,101.7,101.7,0,0,1,11.2-9.92l1-.79.3-.26-1.65-1.28a102.06,102.06,0,0,1-8.64-7.45A86.58,86.58,0,0,1,145,182.24a57.87,57.87,0,0,1-6.39-12.72,50.75,50.75,0,0,1-2.16-8.47,45.43,45.43,0,0,1-.6-9.11,42.44,42.44,0,0,1,2-11.4,46.66,46.66,0,0,1,5.58-11.67,42.26,42.26,0,0,1,4.71-5.88A44.81,44.81,0,0,1,160,114.2a43.19,43.19,0,0,1,12-4.12c1.6-.3,3.22-.5,4.84-.65a53.74,53.74,0,0,1,5.71-.09,24.26,24.26,0,0,1,2.8.27,46.78,46.78,0,0,1,6.79,1.28,44.91,44.91,0,0,1,26.71,20.59A46.42,46.42,0,0,1,224.62,150a44.46,44.46,0,0,1,.1,6.44,45.92,45.92,0,0,1-1.21,8.15,56.63,56.63,0,0,1-7,16.48,78.53,78.53,0,0,1-8.12,10.81,95.47,95.47,0,0,1-12.72,11.9l-2.11,1.63-.24.21Z"/>
  </g>
</svg>
