<?xml version="1.0" encoding="utf-8"?>
<!-- Generator: Adobe Illustrator 21.0.2, SVG Export Plug-In . SVG Version: 6.00 Build 0)  -->
<svg version="1.1" id="Layer_2" xmlns="http://www.w3.org/2000/svg" xmlns:xlink="http://www.w3.org/1999/xlink" x="0px" y="0px"
	 viewBox="0 0 342.2 310.6" style="enable-background:new 0 0 342.2 310.6;" xml:space="preserve">
<style type="text/css">
	.st0{fill:none;}
</style>
<title>drawer</title>
<rect y="171.6" class="st0" width="339" height="139"/>
<g>
	<rect x="97" y="89" width="152" height="21"/>
	<path d="M91.8,54.7h162.4L291.5,160h35L275.2,17.6C271.4,7,261.3,0,250.1,0H95.9C84.7,0,74.6,7,70.8,17.6L19.5,160h35L91.8,54.7z"
		/>
	<rect x="90" y="131" width="166" height="19"/>
	<path d="M314.9,167.7H31.8C16.5,167.5,4,179.7,3.8,195c0,1.6,0.1,3.3,0.4,4.9l15,84.3c2.2,13.4,13.9,23.2,27.5,23.1h254
		c13.4-0.1,24.8-9.9,27-23.1l14-84.3c2.5-15-7.7-29.3-22.7-31.8C317.7,167.8,316.3,167.7,314.9,167.7z M243,233.2
		c0,12.6-10.2,22.8-22.8,22.8h-94.3c-12.6,0-22.8-10.2-22.8-22.8v-9c0-0.1,0.1-0.2,0.2-0.2H116v9.2c0,4.9,4,8.8,8.8,8.8h93.3
		c4.9,0,8.8-4,8.8-8.8V224h16L243,233.2z"/>
</g>
</svg>
