<svg id="Layer_3" data-name="Layer 3" xmlns="http://www.w3.org/2000/svg" viewBox="0 0 360 360">
  <defs>
    <style>
      .cls-1, .cls-2 {
        fill: none;
        stroke: #000;
        stroke-miterlimit: 10;
      }

      .cls-1 {
        stroke-width: 25px;
      }

      .cls-2 {
        stroke-linecap: round;
        stroke-width: 17px;
      }
    </style>
  </defs>
  <title>connect</title>
  <g>
    <g>
      <line class="cls-1" x1="154.9" y1="130.52" x2="239" y2="176.92"/>
      <line class="cls-1" x1="242.38" y1="234.33" x2="177.25" y2="281.25"/>
      <path class="cls-1" d="M286.69,148.62A54.31,54.31,0,1,0,341,202.93,54.3,54.3,0,0,0,286.69,148.62Z"/>
      <path class="cls-1" d="M91.42,23.22a72.43,72.43,0,1,0,72.42,72.42A72.42,72.42,0,0,0,91.42,23.22Z"/>
      <circle class="cls-1" cx="140.77" cy="300.57" r="36.21"/>
    </g>
    <path d="M138.16,305c-2.62,0-4.8-.07-7,0-1.84.08-2.57-.61-2.62-2.51-.15-5.43-.22-5.43,5.14-5.43h4.45c0-2.74.06-5.34,0-7.94-.06-1.85.61-2.56,2.53-2.59,5.33-.08,5.33-.15,5.33,5.24v5.28c2.72,0,5.22.05,7.71,0,1.84-.05,2.55.67,2.59,2.56.12,5.39.18,5.38-5.19,5.38H146c0,2.81-.08,5.34,0,7.85.08,2-.77,2.7-2.74,2.66-5.93-.11-5,.43-5.1-5.1C138.14,308.72,138.16,307,138.16,305Z"/>
    <g>
      <path d="M105.62,64.18c.13,7.76-6.54,14.28-14.64,14.3A14.14,14.14,0,0,1,76.55,65a14.57,14.57,0,0,1,14-14.94C98.25,49.81,105.48,56.6,105.62,64.18Z"/>
      <path d="M59.26,109.2C51,109.15,44.77,103,44.91,94.93A14.54,14.54,0,0,1,59.87,81a14.14,14.14,0,0,1,13.78,14.1C73.73,103.34,67.69,109.25,59.26,109.2Z"/>
      <path d="M105.62,126.37c-.14,7.69-7.12,14.15-15.06,13.92a14.44,14.44,0,0,1-14-14.82A14.26,14.26,0,0,1,91,112.09C99.2,112.16,105.74,118.56,105.62,126.37Z"/>
      <path d="M137,96.12c-.51,7.88-7.3,13.55-15.59,13a14.23,14.23,0,0,1-13.45-14.41C108.26,87,115.35,80.67,123.2,81S137.5,88.38,137,96.12Z"/>
    </g>
    <line class="cls-2" x1="262.55" y1="203.47" x2="308.68" y2="203.47"/>
  </g>
</svg>
