<?xml version="1.0" encoding="utf-8"?>
<!-- Generator: Adobe Illustrator 21.0.2, SVG Export Plug-In . SVG Version: 6.00 Build 0)  -->
<svg version="1.1" id="Layer_3" xmlns="http://www.w3.org/2000/svg" xmlns:xlink="http://www.w3.org/1999/xlink" x="0px" y="0px"
	 viewBox="0 0 360 360" style="enable-background:new 0 0 360 360;" xml:space="preserve">
<title>docs</title>
<g>
	<polygon points="310,118.7 214.4,20.9 225,10.3 310,95.3 	"/>
	<path d="M275.3,353.8H84.7c-19.1,0-34.7-15.5-34.7-34.7V41.3c0-19,15.5-34.6,34.5-34.6l136.3-0.4l6.3,6.3v68.2
		c0,7.5,6.1,13.5,13.5,13.5H310v224.9C310,338.2,294.5,353.8,275.3,353.8z M212.2,21.2L84.6,21.6C73.8,21.7,65,30.5,65,41.3v277.9
		c0,10.8,8.8,19.7,19.7,19.7h190.7c10.8,0,19.7-8.8,19.7-19.7V109.3h-54.2c-15.7,0-28.5-12.8-28.5-28.5V21.2z"/>
</g>
</svg>
