<?xml version="1.0" encoding="utf-8"?>
<!-- Generator: Adobe Illustrator 21.0.2, SVG Export Plug-In . SVG Version: 6.00 Build 0)  -->
<svg version="1.1" id="Layer_2" xmlns="http://www.w3.org/2000/svg" xmlns:xlink="http://www.w3.org/1999/xlink" x="0px" y="0px"
	 viewBox="0 0 512 512" style="enable-background:new 0 0 512 512;" xml:space="preserve">
<style type="text/css">
	.st0{fill:none;}
</style>
<line class="st0" x1="508.9" y1="337.5" x2="426.5" y2="420"/>
<polyline class="st0" points="3.1,337.5 44.3,378.7 85.6,420 "/>
<path d="M462.5,413.6L272.4,187.3c-8.6-10.2-24.2-10.2-32.8,0L49.5,413.6c-7.6,9-21.1,10.2-30.1,2.6l-11-9.3
	c-9-7.6-10.2-21.1-2.6-30.1L239.6,98.4c8.6-10.2,24.2-10.2,32.8,0l233.9,278.5c7.6,9,6.4,22.5-2.6,30.1l-11,9.3
	C483.6,423.8,470.1,422.7,462.5,413.6z"/>
</svg>
