<svg id="Layer_1" data-name="Layer 1" xmlns="http://www.w3.org/2000/svg" viewBox="0 0 1236 605">
  <defs>
    <radialGradient id="grad1" cx="50%" cy="50%" r="50%" fx="50%" fy="50%">
      <stop offset="0%" style="stop-color:rgb(255,255,255);
      stop-opacity:0" />
      <stop offset="100%" style="stop-color:rgb(0,0,255);stop-opacity:1" />
    </radialGradient>
    <style>
      .cls-1 {
      fill:orange;
        animation: fade 3s infinite;
      }
      @keyframes fade{
        0%{
          opacity:0.7;
        }
        50%{
           opacity:1;
         }
         100%{
           opacity:0.7;
         }
      }
      .dot{
      fill:#C57F00;
      }
      .plus{
      fill:#C57F00;
      }
    </style>
    <linearGradient id="grad1" x1="0%" y1="0%" x2="100%" y2="0%">
      <stop offset="0%" style="stop-color:rgb(255,255,0);stop-opacity:1" />
      <stop offset="100%" style="stop-color:rgb(255,0,0);stop-opacity:1" />
    </linearGradient>
  </defs>
  <title>circuit2</title>
  <path class="cls-1"  d="M616.68,378.07c-2.79,3.59-5.35,6.86-7.88,10.15a626,626,0,0,1-45.69,53,531.08,531.08,0,0,1-90,74.93c-24.46,16.11-50.3,29.49-78,39.19a311.32,311.32,0,0,1-51.94,13.25,278.71,278.71,0,0,1-55.91,3.67,260.33,260.33,0,0,1-69.93-12.17,286.23,286.23,0,0,1-71.57-34.21A259.26,259.26,0,0,1,109.7,497c-22.17-21.22-39.83-45.76-53.94-73a264.92,264.92,0,0,1-25.27-73.64c-1.84-9.82-3.05-19.73-4-29.68-1.17-11.66-.61-23.34-.54-35,0-5.73,1-11.46,1.67-17.18a287,287,0,0,1,7.84-41.66c10.19-38,28.36-71.8,53.41-102A266.39,266.39,0,0,1,161.76,63,284.76,284.76,0,0,1,275.56,27.66a272.77,272.77,0,0,1,39.53-.59,281.68,281.68,0,0,1,50,7.43c36.05,8.7,69.58,23.38,101.1,42.8,23.63,14.55,45.51,31.43,66.28,49.79a585.63,585.63,0,0,1,73,78c3.35,4.28,6.63,8.62,10,12.93.34.44.73.83,1.31,1.49.88-1,1.71-1.91,2.49-2.86,8.41-10.27,16.58-20.75,25.27-30.78C674.74,151,708.3,119.54,746,92.61a377.52,377.52,0,0,1,78.42-43.55,306.18,306.18,0,0,1,66-18.69,285.5,285.5,0,0,1,37.45-3.48A282.26,282.26,0,0,1,969.26,29a264.36,264.36,0,0,1,136,57.35,274.51,274.51,0,0,1,54.52,58,266,266,0,0,1,36.91,78.4,283.5,283.5,0,0,1,9.09,43.85,263.16,263.16,0,0,1,1.58,47.87,280.78,280.78,0,0,1-14.16,73.7,268.41,268.41,0,0,1-49.06,86.75A265.75,265.75,0,0,1,1065,539.65a274.67,274.67,0,0,1-79.47,28A269,269,0,0,1,946,572c-43.95,1.62-86-6.79-126.37-23.9-27.22-11.53-52.43-26.59-76.43-43.73A518.87,518.87,0,0,1,684,454.91a623.88,623.88,0,0,1-60.87-68.72q-2.41-3.14-4.84-6.26C617.86,379.38,617.38,378.87,616.68,378.07ZM117,300c0,2.8-.09,5.6,0,8.39a184.77,184.77,0,0,0,3.38,29,182.87,182.87,0,0,0,18,50.38,169.4,169.4,0,0,0,80.39,76.08,181.22,181.22,0,0,0,72.92,17.33,190.32,190.32,0,0,0,42-3.63c18.76-3.75,36.55-10.34,53.68-18.78a358.5,358.5,0,0,0,70.43-46.19,586.41,586.41,0,0,0,60.91-59.06,402.47,402.47,0,0,0,38.84-50.25c1.78-2.74,1.73-5,0-7.69A406.39,406.39,0,0,0,528,255.17a562.93,562.93,0,0,0-49.41-51.91c-20.62-19.29-42.72-36.64-67.08-51A274.44,274.44,0,0,0,361,128.6,194.78,194.78,0,0,0,306.36,118a191.09,191.09,0,0,0-44.16,3.13,182.12,182.12,0,0,0-66.26,26.7c-28.6,18.66-49.28,44.09-63.27,75.07C121.61,247.39,116.89,273.24,117,300ZM937.77,117.77c-1.76,0-3.52,0-5.27,0a179.1,179.1,0,0,0-32.12,3.67,221.5,221.5,0,0,0-56.14,19.69c-27.39,13.73-52.26,31.22-75.46,51.15A569.06,569.06,0,0,0,726.4,233a458.22,458.22,0,0,0-38.93,46.2c-4.17,5.76-8.06,11.73-12.08,17.6a4.4,4.4,0,0,0,.14,5.73c1.18,1.51,2.22,3.13,3.35,4.68,6.42,8.87,12.56,18,19.34,26.56,18.71,23.73,39.71,45.34,62.16,65.54,18,16.19,37,31.09,57.56,43.83,19.44,12,39.71,22.29,61.59,29.16a188.32,188.32,0,0,0,64,8.86,185.46,185.46,0,0,0,38.83-5.7c33.61-8.56,62.64-25,86.28-50.53a173,173,0,0,0,41.84-77.41,231,231,0,0,0,5.87-40.27,174.32,174.32,0,0,0-1.95-37.29,192.14,192.14,0,0,0-8.81-34.56c-9.51-27.32-24.49-51.07-46-70.55A182.61,182.61,0,0,0,1016,135.9C991.28,124,965.26,117.64,937.77,117.77Z">
      
  </path>
  <path class="cls-1 plus" d="M270.12,325.32c-17.09,0-31.3-.44-45.47.14-12,.49-16.77-4-17.12-16.41-1-35.45-1.44-35.44,33.53-35.44h29.06c0-17.91.42-34.86-.14-51.78-.4-12.06,4-16.7,16.5-16.88,34.77-.49,34.76-1,34.77,34.2,0,10.57,0,21.14,0,34.48,17.76,0,34.06.35,50.33-.12,12-.35,16.65,4.38,16.92,16.7.76,35.14,1.2,35.13-33.84,35.13H321.17c0,18.36-.49,34.83.16,51.25.52,13.21-5,17.61-17.91,17.37-38.7-.72-32.91,2.79-33.28-33.25C270,349.58,270.12,338.46,270.12,325.32Z">

    
  </path>
  <g>
    <path class="cls-1 dot" d="M964,238.77c.26,15.27-12.86,28.09-28.79,28.13-15.41,0-27.79-11.52-28.38-26.53-.61-15.51,12-28.89,27.6-29.38C949.52,210.51,963.73,223.87,964,238.77Z"/>
    <path class="cls-1 dot" d="M872.82,327.31c-16.32-.1-28.49-12.21-28.21-28.06.27-15.26,13.93-28,29.42-27.37a27.81,27.81,0,0,1,27.11,27.73C901.28,315.79,889.4,327.41,872.82,327.31Z"/>
    <path class="cls-1 dot" d="M964,361.09c-.28,15.12-14,27.83-29.61,27.38S906,374.73,906.76,359.32C907.43,344.49,920,333,935.32,333,951.38,333.13,964.25,345.73,964,361.09Z"/>
    <path class="cls-1 dot" d="M1025.7,301.6c-1,15.5-14.36,26.65-30.67,25.63-15.12-.94-27-13.72-26.45-28.35.61-15.13,14.57-27.68,30-27S1026.7,286.36,1025.7,301.6Z"/>
  </g>

</svg>
